<svg width="33" height="12" viewBox="0 0 33 12" fill="none" xmlns="http://www.w3.org/2000/svg">
<path d="M0.078125 9V0.544922H5.21094V1.49414H1.13281V4.40039H4.87695V5.33789H1.13281V9H0.078125ZM7.30547 1.46484C6.91875 1.46484 6.60234 1.14844 6.60234 0.761719C6.60234 0.375 6.91875 0.0585938 7.30547 0.0585938C7.69219 0.0585938 8.00859 0.375 8.00859 0.761719C8.00859 1.14844 7.69219 1.46484 7.30547 1.46484ZM6.78984 9V2.68359H7.80937V9H6.78984ZM12.2828 11.2266C10.7594 11.2266 9.78672 10.541 9.62852 9.50391L9.64023 9.49805H10.6949L10.7008 9.50391C10.8121 9.98438 11.3746 10.3242 12.2828 10.3242C13.4137 10.3242 14.0875 9.79102 14.0875 8.85938V7.58203H13.9937C13.5953 8.2793 12.8805 8.67188 12.0133 8.67188C10.3785 8.67188 9.36484 7.40625 9.36484 5.63672V5.625C9.36484 3.85547 10.3844 2.57227 12.0367 2.57227C12.9273 2.57227 13.6187 3.01172 14.0055 3.72656H14.0758V2.68359H15.0953V8.91211C15.0953 10.3242 14.0055 11.2266 12.2828 11.2266ZM12.2359 7.76953C13.4078 7.76953 14.1109 6.89062 14.1109 5.63672V5.625C14.1109 4.37109 13.402 3.47461 12.2359 3.47461C11.0641 3.47461 10.4078 4.37109 10.4078 5.625V5.63672C10.4078 6.89062 11.0641 7.76953 12.2359 7.76953ZM16.9438 9V2.68359H17.9633V3.64453H18.057C18.3383 2.96484 18.9359 2.57227 19.7621 2.57227C20.6176 2.57227 21.2152 3.02344 21.5082 3.67969H21.602C21.9418 3.01172 22.6625 2.57227 23.5355 2.57227C24.8246 2.57227 25.5453 3.31055 25.5453 4.63477V9H24.5258V4.86914C24.5258 3.9375 24.098 3.47461 23.2074 3.47461C22.3285 3.47461 21.7484 4.13672 21.7484 4.93945V9H20.7289V4.71094C20.7289 3.96094 20.2133 3.47461 19.4164 3.47461C18.5902 3.47461 17.9633 4.19531 17.9633 5.08594V9H16.9438ZM29.0695 9.11133C27.8684 9.11133 26.9602 8.38477 26.9602 7.23633V7.22461C26.9602 6.09961 27.7922 5.44922 29.2629 5.36133L31.0734 5.25V4.67578C31.0734 3.89648 30.5988 3.47461 29.6555 3.47461C28.8996 3.47461 28.4016 3.75586 28.2375 4.24805L28.2316 4.26562H27.2121L27.218 4.23047C27.382 3.24023 28.343 2.57227 29.6906 2.57227C31.2316 2.57227 32.093 3.36328 32.093 4.67578V9H31.0734V8.06836H30.9797C30.5812 8.74219 29.9191 9.11133 29.0695 9.11133ZM28.0031 7.21289C28.0031 7.85156 28.548 8.22656 29.2805 8.22656C30.3176 8.22656 31.0734 7.54688 31.0734 6.64453V6.07031L29.3859 6.17578C28.425 6.23438 28.0031 6.57422 28.0031 7.20117V7.21289Z" fill="black"/>
</svg>
